<svg viewBox="0 0 16 16" fill="none" xmlns="http://www.w3.org/2000/svg">
<path fill-rule="evenodd" clip-rule="evenodd" d="M6.52356 5.50293C6.54247 5.5241 6.56209 5.54485 6.58241 5.56518L10.1682 9.15096C10.1886 9.17136 10.2094 9.19105 10.2307 9.21002L5.73788 13.7028C5.20089 14.2398 4.42338 14.3589 3.87923 14.4324C3.11771 14.5352 2.22622 15.0382 1.31664 15.6089C0.95124 15.8382 0.514888 15.7852 0.238862 15.5043C-0.0356172 15.225 -0.0829047 14.7902 0.14589 14.4282C0.716792 13.525 1.20937 12.6242 1.3054 11.859C1.37435 11.3095 1.49313 10.5334 2.03077 9.99571L6.52356 5.50293ZM2.73788 10.7028L7.2288 6.2119L9.5217 8.50479L5.03078 12.9957C4.76427 13.2622 4.32741 13.3628 3.74546 13.4414C2.93023 13.5514 2.07585 13.9843 1.31347 14.4378C1.76926 13.6683 2.19442 12.8059 2.29762 11.9835C2.37014 11.4055 2.47203 10.9687 2.73788 10.7028Z" fill="white"/>
<path d="M9.94995 2.22651L11.4438 0.732255C12.4201 -0.244055 14.0031 -0.2441 14.9794 0.732211C15.9557 1.70851 15.9557 3.29139 14.9794 4.2677L13.4855 5.76204L9.94995 2.22651Z" fill="white"/>
<path d="M9.22834 2.91885C8.64255 2.33306 7.6928 2.33307 7.10702 2.91885L6.58192 3.44395C5.99613 4.02973 5.99613 4.97948 6.58192 5.56527L10.1677 9.15105C10.7535 9.73684 11.7032 9.73684 12.289 9.15105L12.8141 8.62596C13.3999 8.04017 13.3999 7.09042 12.8141 6.50464L9.22834 2.91885Z" fill="white"/>
</svg>
