<svg viewBox="0 0 16 16" fill="none" xmlns="http://www.w3.org/2000/svg">
<g clip-path="url(#clip0)">
<path fill-rule="evenodd" clip-rule="evenodd" d="M12.232 5.64622L7.85333 1.26754C7.65806 1.07228 7.34148 1.07228 7.14622 1.26754L1.26754 7.14622C1.07228 7.34148 1.07228 7.65807 1.26754 7.85333L1.26754 8.56043H0.560434C-0.0253526 7.97465 -0.0253532 7.0249 0.560433 6.43911L6.43911 0.560433C7.0249 -0.0253535 7.97465 -0.0253522 8.56043 0.560434L12.9391 4.93911C13.5249 5.5249 13.5249 6.47465 12.9391 7.06043L7.06043 12.9391C6.47465 13.5249 5.5249 13.5249 4.93911 12.9391L0.560434 8.56043H1.26754L1.26754 7.85333L5.64622 12.232C5.84148 12.4273 6.15806 12.4273 6.35333 12.232L12.232 6.35333C12.4273 6.15807 12.4273 5.84148 12.232 5.64622Z" fill="white"/>
<path fill-rule="evenodd" clip-rule="evenodd" d="M3.14645 0.146447C3.34171 -0.0488155 3.65829 -0.0488155 3.85355 0.146447L6.85355 3.14645C7.04882 3.34171 7.04882 3.65829 6.85355 3.85355C6.65829 4.04882 6.34171 4.04882 6.14645 3.85355L3.14645 0.853553C2.95118 0.658291 2.95118 0.341709 3.14645 0.146447Z" fill="white"/>
<path fill-rule="evenodd" clip-rule="evenodd" d="M13.5 9C13.6794 9 13.8451 9.09614 13.9341 9.25193C14.0927 9.52938 14.3127 9.891 14.5508 10.2822C14.9683 10.9683 15.4412 11.7454 15.7348 12.319C15.9297 12.7001 16 13.1113 16 13.5C16 13.8622 15.8376 14.4626 15.4694 14.9781C15.0845 15.517 14.4452 16 13.5 16C12.5548 16 11.9155 15.517 11.5306 14.9781C11.1624 14.4626 11 13.8622 11 13.5C11 13.0853 11.1082 12.6778 11.3139 12.3178L13.0659 9.25193C13.1549 9.09614 13.3206 9 13.5 9ZM13.5081 10.4935L12.1822 12.8139C12.0628 13.0229 12 13.2594 12 13.5C12 13.6378 12.0876 14.0374 12.3444 14.3969C12.5845 14.733 12.9452 15 13.5 15C14.0548 15 14.4155 14.733 14.6556 14.3969C14.9124 14.0374 15 13.6378 15 13.5C15 13.228 14.9505 12.9816 14.8445 12.7745C14.5628 12.2239 14.1384 11.5279 13.7385 10.872C13.6604 10.7438 13.5832 10.6172 13.5081 10.4935Z" fill="white"/>
</g>
<defs>
<clipPath id="clip0">
<rect width="16" height="16" fill="white"/>
</clipPath>
<clipPath id="clip1">
<rect width="16" height="16" fill="white"/>
</clipPath>
</defs>
</svg>
