<svg viewBox="0 0 24 24" fill="none" xmlns="http://www.w3.org/2000/svg">
<path d="M18.0625 8.4375H12.4375C11.3329 8.4375 10.4375 9.33293 10.4375 10.4375V19.5625C10.4375 20.6671 11.3329 21.5625 12.4375 21.5625H18.0625C19.1671 21.5625 20.0625 20.6671 20.0625 19.5625V10.4375C20.0625 9.33293 19.1671 8.4375 18.0625 8.4375Z" fill="black" fill-opacity="0.0241"/>
<path fill-rule="evenodd" clip-rule="evenodd" d="M8.6875 1.875C7.96263 1.875 7.375 2.46263 7.375 3.1875C7.375 3.91237 7.96263 4.5 8.6875 4.5H13.0625C13.7874 4.5 14.375 3.91237 14.375 3.1875C14.375 2.46263 13.7874 1.875 13.0625 1.875H8.6875ZM6.5 3.1875C6.5 1.97938 7.47938 1 8.6875 1H13.0625C14.2706 1 15.25 1.97938 15.25 3.1875C15.25 4.39562 14.2706 5.375 13.0625 5.375H8.6875C7.47938 5.375 6.5 4.39562 6.5 3.1875Z" fill="white"/>
<path fill-rule="evenodd" clip-rule="evenodd" d="M5.1875 3.625C4.46263 3.625 3.875 4.21263 3.875 4.9375V19.8125C3.875 20.5374 4.46263 21.125 5.1875 21.125H8.6875C8.92912 21.125 9.125 21.3209 9.125 21.5625C9.125 21.8041 8.92912 22 8.6875 22H5.1875C3.97938 22 3 21.0206 3 19.8125V4.9375C3 3.72938 3.97938 2.75 5.1875 2.75H6.9375C7.17912 2.75 7.375 2.94588 7.375 3.1875C7.375 3.42912 7.17912 3.625 6.9375 3.625H5.1875ZM14.375 3.1875C14.375 2.94588 14.5709 2.75 14.8125 2.75H16.5625C17.7706 2.75 18.75 3.72938 18.75 4.9375V6.6875C18.75 6.92912 18.5541 7.125 18.3125 7.125C18.0709 7.125 17.875 6.92912 17.875 6.6875V4.9375C17.875 4.21263 17.2874 3.625 16.5625 3.625H14.8125C14.5709 3.625 14.375 3.42912 14.375 3.1875Z" fill="white"/>
<path fill-rule="evenodd" clip-rule="evenodd" d="M10 10.1875C10 8.97938 10.9794 8 12.1875 8H18.3125C19.5206 8 20.5 8.97938 20.5 10.1875V19.8125C20.5 21.0206 19.5206 22 18.3125 22H12.1875C10.9794 22 10 21.0206 10 19.8125V10.1875ZM12.1875 8.875C11.4626 8.875 10.875 9.46263 10.875 10.1875V19.8125C10.875 20.5374 11.4626 21.125 12.1875 21.125H18.3125C19.0374 21.125 19.625 20.5374 19.625 19.8125V10.1875C19.625 9.46263 19.0374 8.875 18.3125 8.875H12.1875Z" fill="white"/>
</svg>
