<svg viewBox="0 0 24 24" fill="none" xmlns="http://www.w3.org/2000/svg">
<path d="M1.23376 7.17816C2.81325 7.17816 7.93817 7.17816 12.6766 9.53488C17.3987 11.8835 21.6375 12.0671 22.7657 12.0671" stroke="white" stroke-linecap="round"/>
<path d="M1.46808 10.3555H2.01029C3.97475 10.373 8.24232 10.5666 12.7031 12.7131C17.053 14.8061 20.5045 15.2178 22.0335 15.2445H22.5319" stroke="white" stroke-width="1.5" stroke-linecap="round"/>
<path d="M1.70209 14.511C3.81315 14.54 8.24713 14.7858 12.7252 16.8701C17.0208 18.8694 20.6144 19.3526 22.2978 19.3999" stroke="white" stroke-width="2" stroke-linecap="round"/>
<path d="M1 4H1.35505C3.01097 4 7.74215 4.1711 12.7099 6.39477C17.6605 8.61077 21.4626 8.7315 22.6454 8.7315H23" stroke="white" stroke-width="0.5" stroke-linecap="round"/>
</svg>
