<svg viewBox="0 0 18 18" fill="none" xmlns="http://www.w3.org/2000/svg">
<path d="M12.972 5.83897L12.7792 5.3776L12.972 5.83897ZM16.6046 4.70468C16.7096 4.44924 16.5875 4.15712 16.3321 4.05221L12.1695 2.34257C11.9141 2.23766 11.6219 2.35969 11.517 2.61512C11.4121 2.87056 11.5341 3.16268 11.7896 3.26759L15.4897 4.78727L13.97 8.48735C13.8651 8.74279 13.9871 9.03491 14.2425 9.13982C14.498 9.24473 14.7901 9.1227 14.895 8.86727L16.6046 4.70468ZM13.1647 6.30033L16.3349 4.97608L15.9494 4.05335L12.7792 5.3776L13.1647 6.30033ZM4.83525 15.5029C6.10301 11.3482 9.15648 7.97465 13.1647 6.30033L12.7792 5.3776C8.49626 7.1667 5.23346 10.7715 3.87879 15.2111L4.83525 15.5029Z" fill="black" fill-opacity="0.8956"/>
</svg>
