<svg viewBox="0 0 16 16" fill="none" xmlns="http://www.w3.org/2000/svg">
<path fill-rule="evenodd" clip-rule="evenodd" d="M1 3C1 1.89543 1.89543 1 3 1H4.5C4.77614 1 5 1.22386 5 1.5C5 1.77614 4.77614 2 4.5 2H3C2.44772 2 2 2.44772 2 3V4.5C2 4.77614 1.77614 5 1.5 5C1.22386 5 1 4.77614 1 4.5V3ZM6 1.5C6 1.22386 6.22386 1 6.5 1H9.5C9.77614 1 10 1.22386 10 1.5C10 1.77614 9.77614 2 9.5 2H6.5C6.22386 2 6 1.77614 6 1.5ZM14.5 6C14.7761 6 15 6.22386 15 6.5V9.5C15 9.77614 14.7761 10 14.5 10C14.2239 10 14 9.77614 14 9.5V6.5C14 6.22386 14.2239 6 14.5 6ZM14.5 11C14.7761 11 15 11.2239 15 11.5V13C15 14.1046 14.1046 15 13 15H11.5C11.2239 15 11 14.7761 11 14.5C11 14.2239 11.2239 14 11.5 14H13C13.5523 14 14 13.5523 14 13V11.5C14 11.2239 14.2239 11 14.5 11Z" fill="black" fill-opacity="0.8956"/>
<path fill-rule="evenodd" clip-rule="evenodd" d="M11 1.5C11 1.22386 11.2239 1 11.5 1H14.5C14.7761 1 15 1.22386 15 1.5V4.5C15 4.77614 14.7761 5 14.5 5C14.2239 5 14 4.77614 14 4.5V2.70711L11.3536 5.35355C11.1583 5.54882 10.8417 5.54882 10.6464 5.35355C10.4512 5.15829 10.4512 4.84171 10.6464 4.64645L13.2929 2H11.5C11.2239 2 11 1.77614 11 1.5Z" fill="#005FB7"/>
<path fill-rule="evenodd" clip-rule="evenodd" d="M3 7C2.44772 7 2 7.44772 2 8V13C2 13.5523 2.44772 14 3 14H8C8.55228 14 9 13.5523 9 13V8C9 7.44772 8.55228 7 8 7H3ZM1 8C1 6.89543 1.89543 6 3 6H8C9.10457 6 10 6.89543 10 8V13C10 14.1046 9.10457 15 8 15H3C1.89543 15 1 14.1046 1 13V8Z" fill="#005FB7"/>
<path fill-rule="evenodd" clip-rule="evenodd" d="M6.20714 11.9142C5.81662 11.5237 5.18346 11.5237 4.79293 11.9142L2.35359 14.3536L1.64648 13.6465L4.08582 11.2071C4.86687 10.4261 6.1332 10.4261 6.91425 11.2071L9.35359 13.6465L8.64648 14.3536L6.20714 11.9142Z" fill="#005FB7"/>
<path d="M8 8.75C8 9.16421 7.66421 9.5 7.25 9.5C6.83579 9.5 6.5 9.16421 6.5 8.75C6.5 8.33579 6.83579 8 7.25 8C7.66421 8 8 8.33579 8 8.75Z" fill="#005FB7"/>
</svg>
