<svg viewBox="0 0 24 24" fill="none" xmlns="http://www.w3.org/2000/svg">
<path id="penTip" d="M6.80591 5.26482V1.9707H17.1588V5.26482H6.80591Z M10.5 21.5V23H13.5V21.5H10.5Z" fill="gray"/>
<path d="M17.1584 1.5004L17.1584 5.26511M17.1584 5.26511V5.26511C17.6782 5.26511 18.0996 5.68648 18.0996 6.20628L18.0996 8.02981C18.0996 8.5821 17.6519 9.02981 17.0996 9.02981L16.6878 9.02981M17.1584 5.26511L6.80549 5.26511M6.80549 1.5004L6.80549 5.26511M6.80549 5.26511V5.26511C6.2857 5.26511 5.86432 5.68649 5.86432 6.20628L5.86432 8.02981C5.86432 8.5821 6.31203 9.02981 6.86432 9.02981L7.27608 9.02981M16.6878 9.02981L14.4909 20.454C14.4003 20.9248 13.9884 21.2651 13.5089 21.2651L13.3937 21.2651M16.6878 9.02981L7.27608 9.02981M7.27608 9.02981L9.02798 20.4172C9.10303 20.905 9.52278 21.2651 10.0164 21.2651L10.5702 21.2651M13.3937 21.2651L13.3937 23.1475L10.5702 23.1475L10.5702 21.2651M13.3937 21.2651L10.5702 21.2651M4.45255 7.14746L5.39373 7.14746M3.04079 10.9122V10.9122C2.52099 10.9122 2.09961 10.4908 2.09961 9.97099L2.09961 4.32393C2.09961 3.80413 2.52099 3.38275 3.04079 3.38275V3.38275C3.56059 3.38275 3.98196 3.80413 3.98196 4.32393L3.98196 9.97099C3.98196 10.4908 3.56058 10.9122 3.04079 10.9122Z" stroke="black" stroke-linecap="round" stroke-linejoin="round"/>
</svg>
