<svg viewBox="0 0 24 24" fill="none" xmlns="http://www.w3.org/2000/svg">
<path id="penTip" d="M16.2138 14.6744C15.2 14.3204 14.0351 14.0903 12.786 14.0218V21.0222L16.2138 14.6744Z M11.786 14.002V21.0222L8.27344 14.5175C9.32714 14.2048 10.5199 14.0207 11.786 14.002Z" fill="gray"/>
<path fill-rule="evenodd" d="M7.21484 2.42871C7.21484 2.15257 6.99099 1.92871 6.71484 1.92871C6.4387 1.92871 6.21484 2.15257 6.21484 2.42871V5.46443C6.21484 6.43092 6.99835 7.21443 7.96484 7.21443H8.10325L6.50784 10.9854C6.15302 11.8241 6.19834 12.7785 6.63103 13.5798L10.9664 21.6083C11.5333 22.658 13.0393 22.658 13.6061 21.6083L17.9415 13.5798C18.3742 12.7785 18.4195 11.8241 18.0647 10.9854L16.4693 7.21443H16.6077C17.5742 7.21443 18.3577 6.43092 18.3577 5.46443V2.42871C18.3577 2.15257 18.1338 1.92871 17.8577 1.92871C17.5816 1.92871 17.3577 2.15257 17.3577 2.42871V5.46443C17.3577 5.87864 17.0219 6.21443 16.6077 6.21443H15.726C15.7184 6.21425 15.7109 6.21425 15.7033 6.21443H8.86926C8.86169 6.21425 8.85413 6.21425 8.84658 6.21443H7.96484C7.55063 6.21443 7.21484 5.87864 7.21484 5.46443V2.42871ZM7.42881 11.375L9.18907 7.21443H15.3835L17.1437 11.375C17.3803 11.9341 17.3501 12.5704 17.0616 13.1046L12.7863 21.0219V12.9821C13.0025 12.8265 13.1433 12.5726 13.1433 12.2859C13.1433 11.8125 12.7596 11.4287 12.2862 11.4287C11.8128 11.4287 11.429 11.8125 11.429 12.2859C11.429 12.5727 11.5699 12.8266 11.7863 12.9822V21.0219L7.51093 13.1046C7.22248 12.5704 7.19226 11.9342 7.42881 11.375Z" fill="black"/>
</svg>
