<svg viewBox="0 0 24 24" fill="none" xmlns="http://www.w3.org/2000/svg">
<path id="penTip" d="M18.6957 8.30456V6.56543H15.5H14.587H5V8.30456C5 8.85684 5.44772 9.30456 6 9.30456L7.28261 9.30456L10.0217 23.0002H13.6739L16.413 9.30456L17.6957 9.30456C18.2479 9.30456 18.6957 8.85684 18.6957 8.30456Z" fill="gray"/>
<path d="M18.6953 2L18.6953 8.30435C18.6953 8.85663 18.2476 9.30435 17.6953 9.30435L5.99966 9.30435C5.44738 9.30435 4.99966 8.85663 4.99966 8.30435L4.99966 2M16.4127 9.73684L13.6736 23L10.0214 23L7.28227 9.73684M5.45618 6.56522L18.2388 6.56522" stroke="black" stroke-linecap="round" stroke-linejoin="round"/>
</svg>
