<svg viewBox="0 0 18 18" fill="none" xmlns="http://www.w3.org/2000/svg">
<path d="M3.5 14C3.5 14.2761 3.72386 14.5 4 14.5L8.5 14.5C8.77614 14.5 9 14.2761 9 14C9 13.7239 8.77614 13.5 8.5 13.5L4.5 13.5L4.5 9.5C4.5 9.22386 4.27614 9 4 9C3.72386 9 3.5 9.22386 3.5 9.5L3.5 14ZM14.3995 4.1005C14.3995 3.82436 14.1756 3.60051 13.8995 3.6005L9.39949 3.60051C9.12335 3.60051 8.89949 3.82436 8.89949 4.10051C8.8995 4.37665 9.12335 4.60051 9.39949 4.60051L13.3995 4.60051L13.3995 8.60051C13.3995 8.87665 13.6234 9.1005 13.8995 9.10051C14.1756 9.10051 14.3995 8.87665 14.3995 8.60051L14.3995 4.1005ZM4.35355 14.3536L14.253 4.45406L13.5459 3.74695L3.64645 13.6464L4.35355 14.3536Z" fill="black" />
</svg>
