<svg viewBox="0 0 24 24" fill="none" xmlns="http://www.w3.org/2000/svg">
<path id="penTip" d="M16.9461 16.3988C16.7656 18.1838 16.4463 19.9553 15.9895 21.697L15.9481 21.8551C15.9184 21.9683 15.8223 22.0517 15.7061 22.0653L15.5005 22.0892V21C15.5005 20.7239 15.2766 20.5 15.0005 20.5C14.7243 20.5 14.5005 20.7239 14.5005 21V22.2056L14.3705 22.2207C14.0809 22.2544 13.7909 22.2819 13.5005 22.3033V19C13.5005 18.7239 13.2766 18.5 13.0005 18.5C12.7243 18.5 12.5005 18.7239 12.5005 19V22.3521C11.5426 22.3755 10.5834 22.3317 9.63012 22.2207L8.29456 22.0653C8.17829 22.0517 8.08221 21.9683 8.05252 21.8551L8.01111 21.6971C7.55443 19.9554 7.23515 18.1838 7.05469 16.3987C8.5627 16.1426 10.2371 16 12.0002 16C13.7635 16 15.438 16.1426 16.9461 16.3988Z" fill="gray"/>
<path fill-rule="evenodd" d="M7.59091 5.5V1H6.59091V5.93304L5.51762 9.86844C5.47662 10.0188 5.50806 10.1797 5.60265 10.3035C5.68927 10.4169 5.81978 10.4874 5.96084 10.4985C5.69889 14.3481 6.06411 18.216 7.04334 21.9507L7.08476 22.1087C7.21891 22.6204 7.65307 22.9974 8.17848 23.0586L9.51404 23.214C11.1657 23.4063 12.834 23.4063 14.4856 23.214L15.8213 23.0586C16.3466 22.9974 16.7807 22.6204 16.9149 22.1088L16.9564 21.9507C17.9358 18.216 18.3011 14.3481 18.0391 10.4985C18.1802 10.4874 18.3107 10.4169 18.3974 10.3035C18.492 10.1797 18.5234 10.0188 18.4824 9.86844L17.4091 5.93304V1H16.4091V5.5H7.59091ZM16.5272 6.5H7.47281L6.65463 9.5H17.3454L16.5272 6.5ZM6.96311 10.5H17.0368C17.3002 14.2635 16.9466 18.0458 15.9891 21.697L15.9476 21.8551C15.9179 21.9683 15.8219 22.0517 15.7056 22.0653L15.5 22.0892V21C15.5 20.7239 15.2761 20.5 15 20.5C14.7239 20.5 14.5 20.7239 14.5 21V22.2056L14.37 22.2207C14.0805 22.2544 13.7904 22.2819 13.5 22.3033V19C13.5 18.7239 13.2761 18.5 13 18.5C12.7239 18.5 12.5 18.7239 12.5 19V22.3521C11.5421 22.3755 10.583 22.3317 9.62966 22.2207L8.2941 22.0653C8.17783 22.0517 8.08175 21.9683 8.05206 21.8551L8.01065 21.6971C7.05328 18.0458 6.69976 14.2635 6.96311 10.5Z" fill="black"/>
</svg>
