<svg viewBox="0 0 24 24" fill="none" xmlns="http://www.w3.org/2000/svg">
<path d="M16.3026 2.75002C16.4188 2.75002 16.5303 2.79615 16.6125 2.87827L20.1186 6.38122C20.2897 6.55218 20.2897 6.82933 20.1187 7.00035L6.78361 20.3336C6.50516 20.612 6.15675 20.8103 5.77504 20.9076L1.54654 21.985C1.39694 22.0231 1.2383 21.9797 1.12893 21.8709C1.01955 21.762 0.975587 21.6036 1.01318 21.454L2.07656 17.2225C2.17309 16.8384 2.37209 16.4876 2.65237 16.2075L15.9927 2.87828C16.0749 2.79616 16.1864 2.75002 16.3026 2.75002Z" fill="black"/>
<path fill-rule="evenodd" clip-rule="evenodd" d="M16.9248 3.19161L17.5844 2.53256C17.6096 2.51148 17.6348 2.48954 17.6607 2.46688L17.6609 2.46672C17.7731 2.3687 17.9004 2.25743 18.1141 2.14596C18.3782 2.00819 18.7756 1.87574 19.3706 1.87574C19.769 1.87574 20.2095 2.10571 20.5669 2.48233C20.9275 2.86222 21.1236 3.30718 21.1236 3.62722C21.1236 4.76493 20.5547 5.32914 20.3893 5.4932L20.3755 5.50694L19.8088 6.07307L16.9248 3.19161ZM20.1121 7.0084L6.78363 20.3351C6.50518 20.6135 6.15677 20.8118 5.77506 20.909L1.54656 21.9864C1.39696 22.0245 1.23832 21.9812 1.12895 21.8723C1.01957 21.7634 0.975606 21.6051 1.0132 21.4555L2.07658 17.2239C2.17311 16.8398 2.37211 16.489 2.65239 16.209L15.9927 2.87972C16.0055 2.86698 16.0189 2.8551 16.033 2.84412L16.9791 1.89885C16.9894 1.88855 17.0003 1.87877 17.0115 1.86955C17.0231 1.86012 17.0389 1.84608 17.059 1.82834L17.059 1.8283C17.1652 1.73431 17.3887 1.53644 17.7084 1.36965C18.0994 1.1657 18.6362 1 19.3706 1C20.0888 1 20.7439 1.39605 21.203 1.87977C21.659 2.36023 22.0001 3.00993 22.0001 3.62722C22.0001 5.12514 21.2204 5.90188 21.007 6.11446L20.9953 6.12618L20.1187 7.00193C20.1165 7.00411 20.1143 7.00627 20.1121 7.0084ZM3.27219 16.8282L16.3026 3.80858L19.189 6.69241L6.1636 19.7161C5.99654 19.8831 5.78749 20.0021 5.55846 20.0604L2.04236 20.9563L2.92671 17.4372C2.98462 17.2067 3.10403 16.9962 3.27219 16.8282Z" fill="black" />
</svg>
