<svg viewBox="0 0 24 24" fill="none" xmlns="http://www.w3.org/2000/svg">
<path id="penTip" d="M16.3029 14.7057C15.0605 14.2589 13.584 14 12.0001 14C10.4158 14 8.93912 14.259 7.69653 14.7059C8.1145 17.3357 9.16824 19.7558 11.7081 22.082C11.8729 22.233 12.126 22.233 12.2909 22.082C14.8311 19.7557 15.8849 17.3355 16.3029 14.7057Z" fill="gray"/>
<path fill-rule="evenodd" d="M6.5 1V2.5H17.5V1H18.5V3C18.5 3.02545 18.4981 3.05087 18.4942 3.07603L18.0326 6.07603C17.9951 6.31994 17.7852 6.5 17.5385 6.5H17.502C17.5069 7.1406 17.5202 7.77528 17.5333 8.40398C17.6424 13.6313 17.7429 18.4455 12.9667 22.8195C12.4196 23.3206 11.5802 23.3205 11.0331 22.8195C6.25753 18.4455 6.35788 13.6314 6.46685 8.40423C6.47996 7.77545 6.49319 7.14069 6.49808 6.5H6.46154C6.21475 6.5 6.00488 6.31994 5.96735 6.07603L5.50581 3.07603C5.50194 3.05087 5.5 3.02545 5.5 3V1H6.5ZM7.49833 6.5C7.49386 7.17003 7.48135 7.82544 7.4691 8.46737C7.36929 13.6972 7.28655 18.032 11.7085 22.082C11.8734 22.233 12.1265 22.233 12.2913 22.082C16.7138 18.0319 16.631 13.6971 16.531 8.46713C16.5188 7.82528 16.5063 7.16995 16.5018 6.5H12.5V9.5C12.5 9.77614 12.2761 10 12 10C11.7239 10 11.5 9.77614 11.5 9.5V6.5H10.1001V10.5C10.1001 10.7761 9.87624 11 9.6001 11C9.32396 11 9.1001 10.7761 9.1001 10.5V6.5H7.49833ZM17.1095 5.5H6.8905L6.58281 3.5H17.4172L17.1095 5.5Z" fill="white"/>
</svg>
