<svg viewBox="0 0 24 24" fill="none" xmlns="http://www.w3.org/2000/svg">
<path fill-rule="evenodd" clip-rule="evenodd" d="M10.163 1C9.7098 1 9.28052 1.02548 8.87384 1.0737C8.59962 1.10621 8.35096 0.910259 8.31845 0.636037C8.28594 0.361815 8.48189 0.11316 8.75611 0.0806509C9.20367 0.0275933 9.67234 0 10.1631 0V0.5C10.1631 0 10.1631 0 10.1631 0L10.1643 1.04308e-06L10.1663 5.93066e-06L10.1727 3.74913e-05L10.1949 0.000260323C10.2137 0.000507444 10.2407 0.000988573 10.2751 0.00192493C10.344 0.00379717 10.4428 0.00749248 10.5665 0.0147889C10.8136 0.0293674 11.1615 0.0584004 11.5695 0.116335C11.8429 0.155156 12.0331 0.408261 11.9942 0.681661C11.9554 0.955061 11.7023 1.14522 11.4289 1.1064C11.0526 1.05297 10.7324 1.02632 10.5076 1.01305C10.3953 1.00643 10.3071 1.00316 10.248 1.00156C10.2184 1.00075 10.1961 1.00036 10.1818 1.00017L10.1662 1.00002L10.163 1V1ZM7.54276 0.798183C7.62659 1.06129 7.48125 1.34254 7.21814 1.42637C6.35873 1.70018 5.62168 2.09353 4.98782 2.57014C4.76711 2.73609 4.45365 2.6917 4.2877 2.47099C4.12174 2.25028 4.16613 1.93682 4.38685 1.77087C5.10903 1.22786 5.94634 0.782041 6.91458 0.473562C7.17769 0.389734 7.45894 0.535072 7.54276 0.798183ZM12.7694 0.851137C12.8536 0.588122 13.135 0.443108 13.398 0.527239C14.2679 0.805482 15.1927 1.2408 15.9214 1.92987C16.1221 2.1196 16.1309 2.43605 15.9412 2.6367C15.7515 2.83735 15.435 2.8462 15.2344 2.65648C14.6539 2.10759 13.8829 1.73227 13.0933 1.4797C12.8303 1.39557 12.6853 1.11415 12.7694 0.851137ZM3.71153 3.01703C3.92142 3.19647 3.9461 3.51209 3.76666 3.72198C3.20775 4.3757 2.7588 5.1081 2.39883 5.87172C2.28108 6.1215 1.98314 6.22854 1.73336 6.11079C1.48358 5.99305 1.37655 5.69511 1.49429 5.44533C1.88538 4.61571 2.38017 3.80483 3.00658 3.07215C3.18602 2.86226 3.50164 2.83758 3.71153 3.01703ZM16.3845 3.30445C16.6457 3.21486 16.93 3.354 17.0196 3.6152C17.173 4.06251 17.2564 4.55658 17.2564 5.1C17.2564 5.81625 17.3428 6.41058 17.4814 6.9035C17.5562 7.16932 17.4013 7.44544 17.1355 7.52021C16.8697 7.59499 16.5936 7.44011 16.5188 7.17429C16.3525 6.58321 16.2564 5.89676 16.2564 5.1C16.2564 4.6604 16.1892 4.27648 16.0737 3.93961C15.9841 3.6784 16.1233 3.39403 16.3845 3.30445ZM1.44834 6.85141C1.7117 6.93446 1.85788 7.21527 1.77483 7.47863C1.49561 8.36413 1.31472 9.23781 1.19839 10.0237C1.15795 10.2969 0.90373 10.4855 0.630564 10.4451C0.357399 10.4046 0.168734 10.1504 0.209169 9.87726C0.33155 9.05051 0.52287 8.12374 0.821123 7.1779C0.904168 6.91454 1.18498 6.76837 1.44834 6.85141ZM17.9774 8.89997C18.1521 8.68605 18.467 8.65419 18.681 8.82881C19.0574 9.1361 19.4405 9.30771 19.7287 9.40215C19.8724 9.44923 19.9908 9.47655 20.0703 9.4918C20.11 9.49941 20.1397 9.50397 20.1578 9.50646L20.1759 9.50877V9.50877L20.1771 9.50891L20.1972 9.51074L20.2192 9.51473L20.1297 10.0067C20.2192 9.51473 20.2192 9.51473 20.2192 9.51473L20.2209 9.51504L20.2229 9.51543L20.2281 9.51642L20.2426 9.51934C20.254 9.52172 20.269 9.525 20.2873 9.52934C20.324 9.53802 20.374 9.55093 20.4353 9.56932C20.5579 9.60606 20.7264 9.6649 20.924 9.75593C21.3195 9.93802 21.8344 10.2501 22.3308 10.773C22.5209 10.9732 22.5127 11.2897 22.3125 11.4798C22.1122 11.67 21.7957 11.6617 21.6056 11.4615C21.2112 11.0461 20.8069 10.8029 20.5058 10.6643C20.3552 10.5949 20.2311 10.5521 20.1481 10.5272C20.1067 10.5148 20.0757 10.5069 20.0571 10.5025C20.0545 10.5019 20.0523 10.5013 20.0502 10.5009C20.0419 10.4999 20.0322 10.4986 20.0212 10.4971C19.9869 10.4924 19.9399 10.485 19.8819 10.4739C19.7663 10.4517 19.6063 10.4144 19.4173 10.3524C19.0402 10.2289 18.5408 10.0052 18.0486 9.60348C17.8347 9.42886 17.8028 9.11389 17.9774 8.89997ZM0.550564 11.236C0.82629 11.2511 1.03752 11.4869 1.02237 11.7627C1.00036 12.1632 0.995529 12.488 0.996144 12.7113C0.996451 12.8229 0.998117 12.909 0.999666 12.9664C1.00044 12.9951 1.00119 13.0166 1.00172 13.0305L1.00233 13.0456L1.00247 13.0488L1.00307 13.0611V13.0733C1.00307 13.5733 1.02354 14.0474 1.06303 14.4969C1.08719 14.772 0.883777 15.0146 0.608694 15.0388C0.333611 15.0629 0.0910243 14.8595 0.0668622 14.5844C0.0249429 14.1072 0.00336967 13.6074 0.00307519 13.0842L0.00244341 13.0686C0.00177483 13.0511 0.00090767 13.0259 3.02005e-05 12.9934C-0.00172453 12.9284 -0.00352167 12.8342 -0.00385233 12.7141C-0.00451343 12.4739 0.000686448 12.1297 0.0238769 11.7078C0.0390317 11.4321 0.274837 11.2208 0.550564 11.236ZM23.1581 13.1854C23.4269 13.1221 23.6961 13.2888 23.7593 13.5576C23.9135 14.2129 24.0031 14.9667 24.0031 15.8333V15.8437L24.0026 15.854C23.9847 16.2884 23.915 16.7824 23.782 17.3065C23.7141 17.5742 23.442 17.7361 23.1744 17.6682C22.9067 17.6003 22.7448 17.3282 22.8127 17.0606C22.9286 16.6036 22.9875 16.1818 23.0031 15.8229C23.0024 15.0296 22.9201 14.3568 22.7859 13.7866C22.7227 13.5178 22.8893 13.2486 23.1581 13.1854ZM0.757216 15.9829C1.02541 15.9171 1.29614 16.0812 1.3619 16.3494C1.60553 17.3431 1.965 18.1828 2.41549 18.8942C2.56323 19.1275 2.49388 19.4364 2.26059 19.5841C2.02729 19.7318 1.7184 19.6625 1.57066 19.4292C1.0573 18.6186 0.657789 17.677 0.390669 16.5876C0.324909 16.3194 0.489018 16.0486 0.757216 15.9829ZM22.8798 18.4399C23.1252 18.5665 23.2215 18.8681 23.0949 19.1135C22.6849 19.9081 22.116 20.7067 21.3494 21.4219C21.1475 21.6103 20.8311 21.5993 20.6428 21.3974C20.4544 21.1955 20.4653 20.8791 20.6672 20.6907C21.3421 20.061 21.8439 19.3573 22.2062 18.655C22.3328 18.4096 22.6344 18.3133 22.8798 18.4399ZM2.87147 20.3206C3.05941 20.1183 3.37578 20.1066 3.5781 20.2946C4.2461 20.9151 5.02559 21.4005 5.89222 21.7781C6.14538 21.8884 6.26119 22.1831 6.15089 22.4362C6.04059 22.6894 5.74595 22.8052 5.49279 22.6949C4.53934 22.2795 3.66049 21.736 2.89753 21.0272C2.6952 20.8393 2.68354 20.5229 2.87147 20.3206ZM19.9778 21.8882C20.1166 22.1269 20.0357 22.433 19.797 22.5718C19.0328 23.0162 18.1477 23.3805 17.1278 23.6298C16.8596 23.6954 16.589 23.5311 16.5234 23.2629C16.4578 22.9946 16.6221 22.724 16.8903 22.6584C17.8206 22.431 18.616 22.1018 19.2942 21.7074C19.5329 21.5685 19.839 21.6495 19.9778 21.8882ZM7.0561 22.7389C7.12505 22.4715 7.39771 22.3106 7.6651 22.3795C8.55474 22.6089 9.49929 22.7602 10.4762 22.8558C10.751 22.8827 10.952 23.1273 10.9251 23.4021C10.8982 23.6769 10.6536 23.8779 10.3788 23.851C9.36379 23.7517 8.3665 23.5931 7.41544 23.3479C7.14804 23.2789 6.98716 23.0063 7.0561 22.7389ZM15.7081 23.3939C15.7332 23.6689 15.5307 23.9122 15.2557 23.9374C14.8056 23.9785 14.335 24 13.8431 24C13.35 24 12.8549 23.9932 12.361 23.9768C12.085 23.9676 11.8687 23.7364 11.8779 23.4604C11.8871 23.1844 12.1182 22.9681 12.3942 22.9773C12.8752 22.9933 13.359 23 13.8431 23C14.3059 23 14.7461 22.9798 15.1646 22.9415C15.4396 22.9164 15.6829 23.1189 15.7081 23.3939Z" fill="white"/>
</svg>
