<svg viewBox="0 0 24 24" fill="none" xmlns="http://www.w3.org/2000/svg">
<g clip-path="url(#clip0)">
<path fill-rule="evenodd" clip-rule="evenodd" d="M21.4885 2.76199C20.3657 1.63923 18.5454 1.63923 17.4226 2.76199L11.9053 8.2803L11.6253 8.0003L11.1598 8.5954L19.3943 16.8299C19.9118 17.3474 20.3137 17.9689 20.5733 18.6533C20.8862 19.4783 21.2752 20.2724 21.7353 21.0254L21.7794 21.0977C22.156 21.7139 21.4499 22.42 20.8336 22.0435L20.7613 21.9993C20.0084 21.5393 19.2143 21.1502 18.3893 20.8373C17.7049 20.5777 17.0834 20.1759 16.5658 19.6583L8.31964 11.4121L7.74829 11.9014L8.01626 12.1694L2.01462 18.171L1.45469 22.0897C1.39575 22.5022 1.74933 22.8558 2.16182 22.7968L6.08048 22.2369L12.0821 16.2353L16.0355 20.1886C16.6281 20.7812 17.3397 21.2413 18.1233 21.5386C18.9048 21.835 19.6571 22.2035 20.3703 22.6393L20.4426 22.6835C21.7307 23.4705 23.2064 21.9947 22.4194 20.7066L22.3753 20.6344C21.9395 19.9211 21.571 19.1689 21.2745 18.3873C20.9773 17.6037 20.5172 16.8921 19.9246 16.2995L15.9712 12.3462L21.4885 6.82785C22.6113 5.7051 22.6113 3.88475 21.4885 2.76199ZM16.2741 4.97221L19.2793 7.97741L15.4409 11.8158L12.4357 8.81063L16.2741 4.97221ZM19.8095 7.44621L20.9582 6.29752C21.788 5.46766 21.788 4.12218 20.9582 3.29232C20.1283 2.46246 18.7828 2.46246 17.953 3.29232L16.8043 4.44101L19.8095 7.44621ZM8.54659 12.6997L11.5518 15.7049L5.72692 21.5298L2.22073 22.0308L2.72172 18.5246L8.54659 12.6997Z" fill="white"/>
<path fill-rule="evenodd" clip-rule="evenodd" d="M7.131 2.59221C5.80465 1.26586 3.65414 1.26579 2.32778 2.59215C1.00262 3.91731 1.00142 6.06508 2.32418 7.39172L3.70727 8.84885C3.09932 9.70318 3.17843 10.8962 3.9446 11.6624L4.57921 12.297C5.4336 13.1514 6.81884 13.1514 7.67324 12.297L12.0068 7.96343C12.8612 7.10904 12.8612 5.7238 12.0068 4.8694L11.3722 4.2348C10.5999 3.46245 9.39372 3.38829 8.53806 4.0123L7.13222 2.59343L7.131 2.59221ZM7.98912 4.52386L4.21677 8.29621L2.85815 6.86486C1.82473 5.83139 1.82466 4.15593 2.85811 3.12248C3.89137 2.08922 5.56657 2.08906 6.60009 3.12195L7.98912 4.52386ZM4.47493 9.0987L8.80851 4.76513C9.37001 4.20363 10.2804 4.20363 10.8419 4.76513L11.4765 5.39973C12.038 5.96123 12.038 6.8716 11.4765 7.43311L7.14291 11.7667C6.58141 12.3282 5.67104 12.3282 5.10954 11.7667L4.47493 11.1321C3.91343 10.5706 3.91343 9.66021 4.47493 9.0987Z" fill="#60CDFF"/>
</g>
<defs>
<clipPath id="clip0">
<rect width="22" height="22" fill="white" transform="translate(1 1)"/>
</clipPath>
</defs>
</svg>
